<svg width="393" height="512" viewBox="0 0 393 512" fill="none" xmlns="http://www.w3.org/2000/svg">
<path d="M98.25 512C152.484 512 196.5 473.771 196.5 426.667V341.333H98.25C44.016 341.333 0 379.563 0 426.667C0 473.771 44.016 512 98.25 512Z" fill="#0ACF83"/>
<path d="M0 256C0 208.896 44.016 170.667 98.25 170.667H196.5V341.333H98.25C44.016 341.333 0 303.104 0 256Z" fill="#A259FF"/>
<path d="M0 85.3333C0 38.2293 44.016 0 98.25 0H196.5V170.667H98.25C44.016 170.667 0 132.437 0 85.3333Z" fill="#F24E1E"/>
<path d="M196.5 0H294.75C348.984 0 393 38.2293 393 85.3333C393 132.437 348.984 170.667 294.75 170.667H196.5V0Z" fill="#FF7262"/>
<path d="M393 256C393 303.104 348.984 341.333 294.75 341.333C240.516 341.333 196.5 303.104 196.5 256C196.5 208.896 240.516 170.667 294.75 170.667C348.984 170.667 393 208.896 393 256Z" fill="#1ABCFE"/>
</svg>
