<svg width="512" height="512" viewBox="0 0 512 512" fill="none" xmlns="http://www.w3.org/2000/svg">
<path d="M0 418.88V512H81.5787C44.4877 491.263 15.6771 458.377 0 418.88ZM342.229 321.707C342.229 235.584 272.832 152.747 169.195 149.141C95.6373 146.624 38.4213 173.568 0 213.44V303.232C26.112 227.52 98.0267 193.195 158.272 193.835C233.6 194.709 291.627 251.499 292.139 315.861C292.139 377.259 266.901 422.357 197.504 433.536C159.659 439.851 100.48 417.451 102.869 360.277C104.256 330.816 127.147 314.155 153.344 315.349C127.595 349.867 161.664 375.104 185.771 369.984C197.853 367.304 208.634 360.522 216.28 350.791C223.927 341.06 227.966 328.981 227.712 316.608C227.712 294.912 207.275 259.819 156.608 261.141C93.9733 262.592 54.528 307.712 53.1413 363.477C51.6267 433.451 117.291 479.893 184.853 480.448C283.691 481.707 342.613 416.789 342.229 321.707ZM0 0V147.328C48.6346 110.467 108.175 90.8805 169.195 91.6693C314.283 91.6693 406.72 193.259 406.656 321.323C406.656 410.283 365.141 477.227 300.096 512H512V0H0Z" fill="#F24E1E"/>
</svg>
