<svg width="512" height="512" viewBox="0 0 512 512" fill="none" xmlns="http://www.w3.org/2000/svg">
<g clip-path="url(#clip0_1_5)">
<path d="M256 0C114.624 0 0 114.624 0 256C0 397.376 114.624 512 256 512C397.376 512 512 397.376 512 256C512 114.624 397.376 0 256 0ZM256 39.3813C375.36 39.5307 472.064 136.341 472.064 255.723C472.064 375.211 375.211 472.064 255.723 472.064C136.235 472.064 39.3813 375.211 39.3813 255.723C39.3813 195.989 63.5947 141.909 102.741 102.763C141.931 63.616 196.053 39.4027 255.829 39.4027H255.979L256 39.3813ZM256 98.4747C162.304 114.987 78.7627 201.387 78.7627 295.381C124.608 214.443 155.221 208.619 163.691 208.619C172.16 208.619 176.619 213.013 176.619 222.763V343.381C176.619 358.379 147.477 355.925 137.835 354.453C173.461 407.467 256 413.547 256 413.547L295.381 374.165L334.763 393.856C396.928 365.397 433.216 304.469 433.216 295.403C418.261 313.92 398.101 327.723 374.955 334.571L374.123 334.784C368.896 334.784 354.432 332.096 354.432 324.928V182.144C354.432 169.749 383.061 131.925 393.813 118.144C322.731 136.768 302.123 169.216 302.123 169.216C302.123 169.216 296.725 157.525 275.669 157.525C286.357 167.616 293.547 181.291 295.339 196.608L295.36 196.907V317.525C284.16 325.483 270.955 331.456 256.683 334.613L255.957 334.741C242.304 334.741 235.648 329.195 235.648 318.741C235.648 308.288 236.267 177.216 236.267 177.216C236.267 177.216 216.576 184.448 216.576 143.979C216.576 123.733 255.957 98.432 255.957 98.432L256 98.4747Z" fill="white"/>
</g>
<defs>
<clipPath id="clip0_1_5">
<rect width="512" height="512" fill="white"/>
</clipPath>
</defs>
</svg>
